<?xml version="1.0" standalone="no"?>
<!DOCTYPE svg PUBLIC "-//W3C//DTD SVG 20010904//EN"
 "http://www.w3.org/TR/2001/REC-SVG-20010904/DTD/svg10.dtd">
<svg version="1.0" xmlns="http://www.w3.org/2000/svg"
 width="446.000000pt" height="446.000000pt" viewBox="0 0 446.000000 446.000000"
 preserveAspectRatio="xMidYMid meet">
<metadata>
Created by potrace 1.14, written by Peter Selinger 2001-2017
</metadata>
<g transform="translate(0.000000,446.000000) scale(0.100000,-0.100000)"
fill="#000000" stroke="none">
<path d="M3573 3843 c-7 -2 -13 -10 -13 -17 0 -24 -47 -57 -84 -60 -20 -1 -44
-10 -53 -19 -15 -14 -17 -14 -32 4 -14 18 -20 18 -51 8 -50 -17 -60 -27 -60
-63 -1 -30 -29 -76 -47 -76 -4 0 -14 9 -21 20 -15 24 -40 26 -71 4 -18 -13
-22 -23 -17 -45 9 -47 -27 -80 -91 -83 -50 -3 -83 -18 -83 -37 0 -5 -10 -19
-21 -30 -23 -23 -23 -43 0 -149 5 -25 12 -69 16 -99 4 -30 8 -61 10 -70 1 -9
6 -34 9 -57 l7 -40 -42 5 c-31 4 -43 11 -45 24 -2 13 2 17 12 13 9 -3 12 -1 9
4 -9 15 -38 12 -32 -3 7 -19 -8 -41 -22 -33 -6 4 -11 15 -10 24 0 14 2 13 9
-3 7 -16 9 -17 9 -3 1 9 -7 22 -16 27 -10 6 -14 11 -9 11 5 0 4 6 -2 13 -27
33 -35 126 -10 111 6 -4 5 -10 -3 -15 -8 -5 -9 -9 -3 -9 6 0 10 -11 9 -25 -2
-14 2 -28 7 -32 7 -3 8 -1 4 5 -6 10 4 16 25 14 3 -1 6 5 6 13 0 8 -3 14 -6
13 -19 -2 -24 4 -11 12 11 7 11 10 2 10 -7 0 -10 5 -6 12 4 6 3 8 -4 4 -6 -3
-14 -2 -17 4 -5 8 -12 7 -23 -2 -13 -11 -15 -10 -10 10 4 12 2 20 -3 16 -5 -3
-9 0 -9 5 0 6 -13 23 -30 37 -16 15 -27 31 -24 35 3 5 -1 6 -9 3 -9 -3 -22 4
-31 18 -9 13 -20 23 -24 22 -13 -2 -52 28 -47 36 3 4 -3 7 -13 6 -9 0 -16 5
-14 12 1 8 -1 11 -6 8 -5 -3 -26 6 -46 20 -42 29 -79 27 -96 -5 -12 -23 15
-47 171 -155 53 -36 100 -74 104 -84 22 -54 54 -156 51 -160 -3 -2 -26 -6 -53
-8 -127 -11 -231 -48 -254 -90 -9 -19 -10 -36 -1 -76 22 -103 47 -306 38 -315
-3 -4 -6 8 -6 26 0 138 -156 351 -360 491 -188 128 -483 249 -700 285 -19 3
-42 8 -50 10 -8 2 -37 7 -65 10 -27 3 -61 7 -75 10 -57 12 -322 12 -425 -1
-371 -44 -636 -221 -673 -449 -14 -85 -14 -111 -2 -193 10 -61 9 -81 -5 -130
-21 -71 -21 -170 0 -242 9 -30 17 -63 18 -72 1 -9 4 -15 8 -13 3 3 12 -8 20
-23 7 -15 22 -39 32 -54 10 -16 15 -33 11 -39 -4 -7 -3 -9 3 -6 12 8 56 -36
46 -46 -3 -4 -2 -7 3 -7 6 0 33 -21 60 -47 28 -27 68 -63 90 -81 21 -18 33
-30 25 -26 -9 5 -12 3 -7 -5 4 -6 11 -9 16 -6 5 3 16 -2 24 -11 9 -8 16 -13
16 -9 0 3 15 -5 33 -18 17 -13 53 -34 80 -48 26 -13 47 -27 47 -31 0 -5 6 -8
13 -8 18 0 67 -24 67 -32 0 -5 11 -8 25 -8 14 0 25 -4 25 -9 0 -5 16 -12 36
-15 27 -6 34 -11 30 -23 -5 -13 -4 -13 8 -4 15 12 49 4 40 -10 -3 -5 1 -7 8
-4 16 5 141 -29 133 -37 -3 -3 6 -3 20 -1 20 4 25 1 25 -15 0 -12 4 -23 9 -26
5 -4 7 3 4 15 -5 19 -3 21 28 14 19 -4 35 -11 37 -16 2 -5 15 -6 28 -3 18 5
30 1 40 -12 9 -11 13 -13 9 -6 -5 10 4 12 42 8 26 -3 58 -5 71 -5 13 -1 21 -5
18 -9 -2 -4 0 -14 6 -22 8 -12 9 -12 4 2 -6 20 10 34 17 16 3 -7 6 -8 6 -3 1
14 104 6 113 -9 6 -8 8 -8 8 2 0 8 16 12 46 12 32 0 43 -3 38 -12 -5 -7 -3 -8
6 -3 10 6 12 4 7 -9 -4 -10 -3 -15 4 -11 5 4 7 14 4 24 -4 15 2 18 44 20 27 1
62 6 78 10 15 4 39 7 53 6 14 -2 30 1 35 5 18 14 159 61 182 61 33 -1 86 -34
89 -56 4 -28 -11 -42 -69 -61 -166 -54 -229 -126 -306 -350 -40 -119 -40 -146
4 -199 19 -23 31 -45 28 -49 -4 -3 -1 -6 5 -6 16 0 52 -37 44 -44 -3 -3 0 -6
7 -6 18 0 82 -51 76 -60 -3 -5 0 -12 6 -16 8 -4 9 -3 5 4 -9 15 -1 15 25 1 11
-5 16 -15 13 -21 -5 -7 -2 -8 6 -3 8 5 18 1 27 -10 7 -11 13 -14 13 -9 0 6 25
2 60 -9 33 -11 57 -24 54 -28 -3 -5 0 -9 5 -9 6 0 11 5 11 10 0 15 52 0 68
-19 11 -15 12 -15 6 0 -4 13 0 15 20 12 20 -4 26 0 31 18 3 13 13 61 23 105
l19 81 -76 17 c-123 26 -227 81 -308 163 -66 68 -67 115 -2 149 21 11 29 11
32 1 4 -8 6 -6 6 4 1 9 13 21 27 27 14 7 23 8 19 2 -3 -5 -2 -10 3 -10 6 0 13
7 16 16 4 12 13 14 32 10 17 -5 23 -3 19 4 -3 5 2 10 13 10 10 0 27 9 37 20
10 11 21 18 24 15 4 -2 7 4 8 13 0 9 15 80 32 156 18 79 31 159 29 185 -1 25
1 52 5 58 6 9 3 11 -8 7 -11 -5 -14 -2 -9 10 3 9 10 16 14 16 4 0 13 14 20 30
7 17 16 30 20 30 5 0 11 14 15 30 4 17 10 28 14 26 4 -3 7 3 8 12 8 89 10 97
25 94 9 -1 19 2 22 7 3 5 -2 8 -12 7 -11 -1 -18 7 -20 24 -2 19 5 32 30 50 18
13 37 30 41 37 5 7 14 10 20 7 7 -4 9 -4 5 1 -10 10 11 37 23 29 5 -3 9 4 9
15 0 12 9 30 20 41 11 11 20 22 20 25 0 3 0 12 0 21 0 8 3 13 8 11 7 -5 14 51
16 135 1 59 16 64 17 6 0 -43 4 -73 14 -116 4 -18 2 -22 -7 -16 -10 6 -10 5
-2 -7 7 -8 15 -48 19 -89 4 -41 8 -82 10 -91 2 -9 6 -59 10 -110 11 -161 12
-164 67 -175 15 -4 25 -10 22 -15 -3 -5 3 -6 12 -2 13 5 15 3 9 -8 -7 -11 -6
-12 6 -3 10 9 24 8 54 -1 22 -7 33 -13 23 -14 -9 -1 -18 -5 -20 -9 -8 -20
-467 -255 -485 -248 -8 3 -11 1 -8 -5 4 -5 7 -89 7 -185 0 -170 2 -180 32
-175 5 1 6 -6 2 -15 -6 -15 -4 -15 11 -3 10 7 15 10 11 5 -11 -13 15 -33 36
-28 12 3 17 1 12 -6 -3 -6 -1 -14 5 -18 8 -4 9 -3 5 4 -9 15 -45 14 352 15
296 2 345 0 353 -13 7 -12 8 -12 9 4 0 16 2 16 16 6 8 -8 14 -9 13 -4 -4 21 2
28 12 14 9 -13 10 -12 5 2 -3 10 -1 20 4 23 5 3 12 24 15 48 5 29 15 48 33 62
15 10 22 13 15 5 -9 -12 -7 -15 12 -15 13 0 21 5 18 12 -3 6 1 10 9 9 29 -6
48 -19 48 -33 0 -8 5 -11 10 -8 6 3 11 -4 12 -17 0 -13 2 -29 2 -36 1 -7 7
-17 15 -21 8 -5 10 -14 6 -22 -5 -8 -4 -10 0 -6 5 4 15 -3 23 -15 l13 -23 -4
22 c-4 18 -2 21 11 14 10 -4 29 -7 44 -6 15 1 25 -2 22 -7 -3 -4 -10 -5 -16
-2 -7 4 -8 2 -4 -4 5 -9 13 -9 26 -2 23 12 241 20 234 8 -3 -5 -10 -5 -16 -2
-7 4 -8 2 -4 -4 5 -9 13 -9 28 -1 13 7 103 12 237 14 249 3 225 1 245 21 9 9
24 17 34 18 15 3 17 21 20 183 l2 181 -47 23 c-97 47 -358 191 -364 201 -3 5
-10 10 -15 10 -5 0 -15 3 -23 8 -10 5 -4 7 16 7 17 -1 30 -4 28 -8 -5 -8 75
-53 81 -46 3 3 -4 8 -15 12 -12 3 -19 11 -15 16 3 6 12 5 22 -3 9 -7 6 1 -7
20 -13 18 -20 36 -17 39 3 4 6 2 6 -4 0 -6 12 -9 27 -7 29 3 60 -9 55 -22 -1
-4 5 -9 14 -10 13 -2 12 2 -5 20 -19 21 -20 24 -6 30 9 3 14 2 11 -3 -3 -5 0
-14 8 -20 10 -9 13 -6 12 11 -1 13 3 23 9 23 5 0 8 -11 7 -25 -5 -46 27 -63
107 -58 39 3 74 1 80 -5 6 -6 17 -4 31 6 17 12 18 16 6 20 -9 4 -15 1 -13 -5
1 -6 -4 -13 -11 -15 -10 -4 -10 1 -1 21 12 25 27 29 42 11 5 -6 7 -4 4 5 -2 8
-9 15 -15 15 -14 0 -18 5 -26 39 -6 26 -5 28 8 17 8 -7 14 -18 12 -24 -1 -7
-1 -9 1 -4 3 4 10 4 16 0 7 -4 6 0 -1 10 -12 14 -10 20 12 42 14 14 21 25 17
25 -5 0 -14 -7 -21 -15 -8 -9 -17 -12 -24 -6 -6 4 -19 8 -28 8 -22 0 -13 -12
9 -12 9 0 19 -7 21 -15 4 -12 3 -13 -10 -3 -8 7 -18 10 -21 7 -3 -4 -13 1 -22
9 -14 14 -13 16 5 22 11 3 29 3 40 0 11 -3 20 -2 20 3 0 5 6 9 13 9 6 0 20 4
30 8 13 5 16 3 11 -8 -3 -8 -1 -18 5 -22 7 -4 8 0 4 11 -4 12 -3 15 6 10 9 -6
9 -3 -1 13 -7 12 -17 21 -22 21 -4 0 -3 7 4 15 7 8 14 29 17 48 3 25 -1 38
-21 56 -21 20 -32 23 -84 19 -57 -5 -59 -4 -59 19 -1 13 4 26 10 30 6 3 7 1 3
-5 -4 -7 -3 -18 1 -26 7 -12 11 -12 27 0 11 7 16 17 12 21 -4 4 -11 1 -16 -7
-5 -8 -12 -11 -16 -7 -8 8 15 39 25 32 4 -2 8 2 8 10 0 8 -4 12 -9 9 -4 -3 -8
0 -8 5 0 6 -5 11 -11 11 -8 0 -7 -6 2 -17 12 -14 12 -16 0 -8 -10 5 -12 4 -7
-3 5 -8 1 -10 -9 -5 -9 3 -13 9 -8 12 4 3 9 16 10 29 5 54 8 71 12 66 10 -10
9 -39 -1 -51 -6 -7 -7 -13 -2 -13 5 0 17 12 27 25 16 23 16 24 1 18 -11 -4
-15 -3 -11 4 4 6 0 19 -9 27 -9 9 -11 16 -4 16 6 0 8 4 5 10 -3 6 -4 10 0 10
3 0 10 -11 15 -25 5 -14 15 -25 22 -25 9 0 10 3 2 8 -15 10 -30 57 -15 48 6
-4 11 -15 12 -24 0 -11 2 -12 6 -4 3 7 0 19 -7 27 -8 10 -8 18 1 33 10 15 10
24 1 34 -7 9 -8 19 -2 28 8 12 10 11 11 -5 l0 -20 8 20 c9 21 -3 45 -23 45 -6
0 -5 -4 3 -9 8 -5 9 -10 3 -12 -6 -2 -14 -20 -17 -39 -4 -25 -3 -31 5 -20 8
13 10 12 10 -3 0 -10 -7 -20 -15 -23 -8 -4 -12 -10 -9 -15 3 -5 0 -9 -6 -9 -7
0 -9 8 -5 19 3 10 6 35 7 55 1 20 5 36 9 36 4 0 5 16 3 35 -1 19 2 35 7 35 6
0 7 -6 4 -12 -4 -7 3 -1 15 15 12 15 27 24 32 21 7 -4 8 -2 4 5 -6 9 -11 9
-22 0 -11 -9 -14 -9 -14 0 0 7 -5 9 -12 5 -7 -4 -8 -3 -4 5 4 6 11 9 16 6 4
-3 13 2 19 9 8 10 9 16 1 21 -9 6 -14 -1 -11 -17 0 -4 -7 -4 -16 -1 -11 4 -13
8 -5 11 7 2 9 9 6 14 -4 7 -2 8 4 4 7 -4 12 -2 12 5 0 8 4 8 15 -1 13 -10 18
-11 28 -1 9 10 8 11 -7 5 -13 -5 -17 -4 -12 4 4 7 -2 9 -20 6 -22 -4 -25 -2
-20 13 8 19 19 99 18 126 0 9 2 17 6 17 4 0 7 -22 7 -50 1 -31 -2 -45 -8 -37
-6 8 -7 6 -3 -6 3 -10 2 -27 -4 -37 -8 -15 -6 -17 10 -13 11 3 23 9 26 14 3 5
-2 6 -12 2 -14 -5 -15 -3 -5 15 6 11 8 29 5 39 -5 16 -4 16 10 -1 13 -16 16
-17 16 -4 0 9 -7 18 -15 22 -8 3 -15 10 -15 16 0 6 12 3 28 -6 27 -17 27 -16
-2 8 l-30 25 30 17 c16 10 22 15 12 12 -25 -7 -29 4 -8 27 11 11 17 23 14 26
-3 3 -9 -1 -13 -8 -6 -9 -11 -10 -15 -2 -4 6 -4 11 0 11 3 0 1 7 -6 15 -8 9
-9 15 -2 15 6 0 14 -4 17 -10 3 -5 14 -9 23 -9 15 1 15 2 -1 6 -9 2 -15 9 -11
14 3 5 10 6 16 3 7 -4 8 -2 4 5 -6 9 -11 9 -22 0 -11 -9 -14 -9 -14 0 0 7 -4
9 -10 6 -5 -3 -8 0 -5 7 9 27 17 74 18 106 0 32 19 44 33 20 5 -8 2 -9 -10 -5
-12 5 -15 3 -9 -6 12 -19 12 -37 0 -37 -6 0 -2 -7 9 -16 16 -13 16 -15 2 -10
-10 3 -19 2 -19 -2 -8 -41 -6 -52 7 -41 16 13 19 23 4 14 -5 -3 -10 -1 -10 6
0 6 8 9 18 7 14 -4 18 0 18 16 -1 11 -6 27 -10 35 -7 11 -5 13 10 7 15 -5 16
-4 7 5 -6 6 -9 18 -6 25 3 8 0 14 -7 14 -6 0 -8 4 -5 10 3 5 0 8 -7 5 -8 -3
-14 4 -14 20 -1 14 2 25 8 25 5 0 7 -4 3 -9 -3 -5 0 -13 6 -17 8 -5 9 -3 4 6
-5 9 -1 10 16 6 22 -6 22 -6 -3 9 -21 12 -26 21 -24 49 1 19 4 38 8 41 4 4 4
13 1 21 -3 8 2 22 10 32 9 9 16 20 16 25 1 4 1 8 2 10 9 28 1 58 -18 68 -12 7
-20 16 -17 21 3 4 0 8 -5 8 -6 0 -11 12 -11 26 0 14 -4 23 -10 19 -5 -3 -10
-3 -10 2 0 20 -103 111 -142 126 -10 3 -18 11 -18 17 0 6 5 8 12 4 7 -5 8 -3
3 5 -5 9 -11 9 -17 3 -14 -14 -58 30 -58 57 0 19 -15 35 -35 36 -5 1 -25 -12
-43 -27 -37 -31 -47 -35 -38 -13 3 8 0 14 -7 12 -7 -1 -10 5 -9 13 2 8 0 12
-4 8 -4 -4 -21 4 -38 17 -45 36 -46 37 -67 73 -17 29 -23 32 -70 32 -36 0 -58
6 -76 20 -25 20 -46 23 -70 13z m-728 -663 c3 -5 1 -10 -4 -10 -6 0 -11 5 -11
10 0 6 2 10 4 10 3 0 8 -4 11 -10z m1400 -299 c-3 -5 -1 -12 5 -16 12 -7 4
-25 -11 -25 -5 0 -7 10 -5 23 6 29 5 27 12 27 3 0 3 -4 -1 -9z m5 -61 c0 -5
-2 -10 -4 -10 -3 0 -8 5 -11 10 -3 6 -1 10 4 10 6 0 11 -4 11 -10z m-1142
-605 c-3 -3 -9 2 -12 12 -6 14 -5 15 5 6 7 -7 10 -15 7 -18z m4 -42 c1 -27 3
-39 8 -55 1 -5 3 -12 4 -17 0 -5 4 -13 8 -17 4 -4 3 -13 -3 -21 -6 -7 -7 -13
-2 -13 5 0 10 -7 10 -15 0 -8 -6 -15 -14 -15 -7 0 -13 5 -13 11 0 5 -6 7 -12
3 -10 -6 -9 -3 0 8 10 12 11 22 3 36 -6 11 -7 22 -4 26 9 8 12 46 4 46 -3 0
-6 11 -6 25 0 34 15 32 17 -2z m822 -271 c3 -5 -1 -9 -9 -9 -8 0 -12 4 -9 9 3
4 7 8 9 8 2 0 6 -4 9 -8z m-898 -44 c5 -7 3 -8 -7 -3 -11 7 -12 6 -2 -7 7 -8
11 -17 8 -20 -3 -2 2 -5 10 -5 10 0 12 4 5 12 -5 6 -5 16 0 25 8 12 10 11 10
-5 0 -11 11 -37 25 -58 14 -20 22 -37 18 -38 -4 0 8 -6 27 -13 34 -13 36 -12
68 21 l33 33 30 -30 c17 -16 37 -30 44 -30 7 0 21 -3 30 -6 10 -4 15 -2 13 7
-2 8 3 13 9 12 7 -2 12 3 10 10 -1 6 3 11 10 10 7 -2 10 4 7 12 -3 7 0 22 6
32 10 16 11 16 7 -5 -3 -13 -1 -20 5 -16 5 3 8 18 6 32 -2 21 1 26 17 25 36
-2 65 -15 65 -30 0 -8 5 -11 10 -8 6 3 10 2 10 -4 0 -5 -6 -12 -12 -15 -7 -3
-2 -3 11 0 17 5 21 3 16 -6 -6 -9 -4 -11 4 -5 15 9 73 -43 64 -58 -3 -6 -1 -7
5 -3 11 6 110 -61 111 -76 1 -4 -8 -5 -19 -3 -11 2 -18 0 -15 -5 3 -5 16 -7
30 -4 17 3 27 -2 34 -15 10 -18 -2 -19 -510 -18 l-521 0 42 38 c23 21 47 36
53 32 5 -3 7 -1 3 5 -9 14 32 42 53 35 12 -4 13 -3 3 4 -10 8 -10 12 2 22 8 7
21 14 28 15 21 3 39 17 33 26 -3 4 3 14 12 21 14 12 16 12 9 -1 -4 -8 3 -3 16
13 13 15 29 27 35 27 6 0 13 7 17 15 7 18 12 19 22 3z m814 -27 c0 -6 -4 -11
-10 -11 -5 0 -10 4 -10 9 0 5 -3 18 -7 28 -6 17 -6 17 10 1 9 -9 17 -21 17
-27z m-930 -55 c0 -3 -4 -8 -10 -11 -5 -3 -10 -1 -10 4 0 6 5 11 10 11 6 0 10
-2 10 -4z m-1 -269 c11 3 11 1 -3 -7 -15 -10 -20 -9 -27 1 -7 12 -9 12 -9 0 0
-8 -3 -12 -6 -8 -3 3 -3 11 1 17 5 8 11 8 17 2 6 -6 18 -8 27 -5z m629 -15
c-2 -8 -21 -26 -43 -40 -23 -15 -34 -18 -27 -9 8 9 22 19 33 22 11 4 16 11 13
17 -5 7 -2 8 6 3 8 -5 11 -3 8 6 -3 8 -11 13 -17 11 -7 -1 -10 2 -6 7 9 15 36
1 33 -17z m54 14 c7 4 8 2 4 -4 -11 -18 -26 -14 -25 6 0 10 3 12 6 4 2 -6 10
-9 15 -6z m-832 -16 c-6 -11 -13 -20 -16 -20 -2 0 0 9 6 20 6 11 13 20 16 20
2 0 0 -9 -6 -20z m60 15 c0 -7 -30 -13 -34 -7 -3 4 4 9 15 9 10 1 19 0 19 -2z
m924 -4 c-8 -9 -44 -11 -44 -3 0 4 11 8 25 8 13 0 22 -2 19 -5z m-890 -32 c-3
-5 -1 -9 5 -9 5 0 12 5 14 10 3 6 4 5 3 -2 -3 -17 -31 -17 -31 0 0 6 -3 12 -7
12 -5 0 -12 0 -17 0 -5 0 -7 -8 -4 -19 3 -10 1 -21 -4 -24 -5 -3 -8 6 -7 20 1
29 23 46 41 31 7 -6 10 -14 7 -19z m-159 3 c-3 -3 -11 0 -18 7 -9 10 -8 11 6
5 10 -3 15 -9 12 -12z m220 5 c-12 -10 -14 -16 -7 -21 7 -4 12 -2 12 3 0 6 5
11 11 11 6 0 1 -13 -10 -28 -19 -27 -19 -29 -2 -39 10 -6 18 -18 18 -26 0 -12
-6 -13 -29 -5 -36 13 -36 20 0 12 l27 -6 -24 20 c-16 13 -20 21 -12 26 6 4 11
12 11 18 0 7 -6 6 -15 -2 -10 -9 -15 -9 -15 -1 0 6 5 11 12 11 6 0 8 3 5 7 -8
8 12 33 26 33 6 0 3 -6 -8 -13z m585 8 c0 -2 -10 -10 -22 -16 -21 -11 -22 -11
-9 4 13 16 31 23 31 12z m45 -25 c-18 -19 -17 -20 3 -20 12 0 21 6 20 12 -2 7
6 13 17 14 15 1 16 0 2 -3 -9 -3 -15 -9 -12 -14 8 -12 -21 -23 -41 -15 -13 5
-13 9 3 30 10 13 20 22 22 20 2 -2 -4 -13 -14 -24z m92 8 c2 -18 0 -20 -7 -8
-12 18 -13 30 -2 30 4 0 9 -10 9 -22z m103 8 c0 -2 -8 -10 -17 -17 -16 -13
-17 -12 -4 4 13 16 21 21 21 13z m-1020 -16 c0 -5 -5 -10 -11 -10 -5 0 -7 5
-4 10 3 6 8 10 11 10 2 0 4 -4 4 -10z m75 -11 c-4 -5 -12 -9 -18 -8 -9 0 -8 2
1 6 6 2 9 10 6 15 -4 7 -2 8 5 4 6 -4 9 -12 6 -17z m1040 3 c-3 -3 -11 0 -18
7 -9 10 -8 11 6 5 10 -3 15 -9 12 -12z m-1075 -6 c0 -2 -7 -7 -16 -10 -8 -3
-12 -2 -9 4 6 10 25 14 25 6z m79 -8 c-3 -27 1 -39 13 -32 7 5 8 3 3 -6 -6
-10 -11 -9 -21 4 -7 10 -10 24 -7 32 6 17 14 18 12 2z m686 -28 c14 -27 14
-30 -5 -40 -14 -7 -20 -7 -20 0 0 5 7 10 16 10 15 0 15 2 0 25 -16 25 -20 35
-11 35 2 0 11 -13 20 -30z m172 17 c0 -8 -6 -14 -14 -14 -9 0 -10 4 -2 14 6 7
12 13 14 13 1 0 2 -6 2 -13z m-1024 -15 c15 -16 15 -19 2 -19 -8 0 -13 3 -10
5 3 3 0 11 -6 19 -17 20 -5 16 14 -5z m98 1 c13 -17 13 -17 -5 -3 -18 13 -19
13 -14 -1 4 -9 1 -16 -7 -16 -10 0 -11 5 -4 19 12 22 13 22 30 1z m104 6 c11
-16 1 -19 -13 -3 -7 8 -8 14 -3 14 5 0 13 -5 16 -11z m755 1 c12 -7 10 -9 -8
-7 -12 0 -22 5 -22 9 0 11 12 10 30 -2z m204 -6 c3 -8 2 -12 -4 -9 -6 3 -10
10 -10 16 0 14 7 11 14 -7z m-1257 -9 c0 -8 -4 -12 -9 -9 -5 3 -6 10 -3 15 9
13 12 11 12 -6z m140 0 c0 -8 -4 -12 -9 -9 -5 3 -6 10 -3 15 9 13 12 11 12 -6z
m856 -25 c-7 -25 -16 -27 -11 -2 2 9 -3 23 -12 30 -13 11 -12 12 7 3 15 -8 20
-17 16 -31z m-82 11 c-7 -5 -12 -12 -11 -17 1 -5 -3 -9 -10 -10 -7 -2 -7 -1 0
3 7 3 7 10 -2 21 -8 10 -9 13 -1 9 6 -4 15 -2 18 4 4 5 10 8 13 4 4 -3 1 -10
-7 -14z m-696 -21 c1 -30 -7 -32 -11 -3 -2 14 3 33 9 33 1 0 2 -13 2 -30z
m809 14 c3 -8 2 -12 -4 -9 -6 3 -10 10 -10 16 0 14 7 11 14 -7z m86 1 c-7 -8
-17 -15 -23 -15 -6 0 -2 7 9 15 25 19 30 19 14 0z m-860 1 c0 -3 -4 -8 -10
-11 -5 -3 -10 -1 -10 4 0 6 5 11 10 11 6 0 10 -2 10 -4z m817 -18 c-3 -8 -6
-5 -6 6 -1 11 2 17 5 13 3 -3 4 -12 1 -19z m-913 -14 c3 -8 2 -12 -4 -9 -6 3
-10 10 -10 16 0 14 7 11 14 -7z m162 -7 c1 -9 -2 -15 -7 -11 -5 3 -7 9 -4 14
3 5 -3 11 -12 14 -15 4 -15 5 1 3 11 -1 20 -10 22 -20z m699 13 c3 -5 1 -10
-4 -10 -6 0 -11 5 -11 10 0 6 2 10 4 10 3 0 8 -4 11 -10z m81 -15 c-1 -8 -8
-21 -16 -28 -10 -10 -11 -9 -4 3 5 8 9 18 10 23 3 14 4 17 8 17 2 0 3 -7 2
-15z m-816 1 c0 -3 -4 -8 -10 -11 -5 -3 -10 -1 -10 4 0 6 5 11 10 11 6 0 10
-2 10 -4z m75 -6 c3 -6 -1 -7 -9 -4 -18 7 -21 14 -7 14 6 0 13 -4 16 -10z
m560 1 c-3 -5 -1 -12 5 -16 5 -3 10 -1 10 6 0 7 2 10 5 7 3 -3 3 -13 -1 -22
-6 -15 -7 -15 -20 1 -16 22 -18 33 -3 33 5 0 8 -4 4 -9z m79 -8 c4 -11 1 -11
-14 -3 -24 13 -25 17 -5 17 8 0 16 -6 19 -14z m71 8 c-9 -8 -36 -10 -30 -2 2
4 11 8 20 8 8 0 13 -3 10 -6z m-890 -22 c-3 -12 -7 -24 -10 -27 -3 -3 -3 5 -1
19 6 30 5 29 10 29 3 0 3 -10 1 -21z m125 2 c0 -6 -4 -12 -8 -15 -5 -3 -9 1
-9 9 0 8 4 15 9 15 4 0 8 -4 8 -9z m33 -12 c-8 -8 -13 -7 -18 2 -5 8 -4 10 3
5 7 -4 12 -2 12 5 0 7 3 9 7 6 4 -4 2 -12 -4 -18z m887 11 c0 -5 -2 -10 -4
-10 -3 0 -8 5 -11 10 -3 6 -1 10 4 10 6 0 11 -4 11 -10z m-1202 -31 c-3 -8 -7
-3 -11 10 -4 17 -3 21 5 13 5 -5 8 -16 6 -23z m255 11 c3 -11 1 -18 -4 -14 -5
3 -9 12 -9 20 0 20 7 17 13 -6z m-342 -7 c13 -16 12 -17 -3 -4 -10 7 -18 15
-18 17 0 8 8 3 21 -13z m305 5 c4 -7 3 -8 -4 -4 -7 4 -12 2 -12 -5 0 -7 -3
-10 -6 -6 -6 5 3 27 11 27 2 0 7 -5 11 -12z m724 8 c0 -3 -4 -8 -10 -11 -5 -3
-10 -1 -10 4 0 6 5 11 10 11 6 0 10 -2 10 -4z m60 -6 c0 -5 -4 -10 -10 -10 -5
0 -10 5 -10 10 0 6 5 10 10 10 6 0 10 -4 10 -10z"/>
<path d="M3107 2104 c-8 -8 3 -34 15 -34 7 0 6 5 -1 13 -6 8 -8 17 -4 20 3 4
4 7 1 7 -2 0 -7 -3 -11 -6z"/>
<path d="M3430 1830 c0 -5 7 -7 15 -4 8 4 15 8 15 10 0 2 -7 4 -15 4 -8 0 -15
-4 -15 -10z"/>
<path d="M3075 1771 c-3 -5 -2 -12 3 -15 5 -3 9 1 9 9 0 17 -3 19 -12 6z"/>
<path d="M3653 1665 c0 -7 6 -11 14 -8 7 3 13 6 13 8 0 2 -6 5 -13 8 -8 3 -14
-1 -14 -8z"/>
<path d="M3835 3769 c-4 -6 -5 -12 -2 -15 2 -3 7 2 10 11 7 17 1 20 -8 4z"/>
<path d="M4335 3341 c-3 -5 -2 -12 3 -15 5 -3 9 1 9 9 0 17 -3 19 -12 6z"/>
<path d="M4330 3300 c0 -5 10 -14 23 -20 20 -10 20 -10 5 3 -10 8 -15 17 -11
20 3 4 1 7 -5 7 -7 0 -12 -4 -12 -10z"/>
<path d="M4313 3267 c-17 -27 -11 -36 13 -20 28 18 29 19 9 26 -8 4 -18 1 -22
-6z"/>
<path d="M4359 3258 c-5 -9 -4 -56 1 -52 5 6 8 54 3 54 -2 0 -4 -1 -4 -2z"/>
<path d="M4306 3215 c-14 -11 -16 -15 -5 -15 9 0 10 -3 3 -8 -18 -11 -12 -38
10 -52 17 -10 19 -10 9 1 -9 9 -10 16 -1 26 8 11 7 12 -6 7 -9 -3 -16 -3 -16
0 0 4 10 11 23 16 18 7 18 9 4 9 -10 1 -15 6 -12 11 4 6 11 8 16 5 5 -4 9 -1
9 4 0 15 -11 13 -34 -4z"/>
<path d="M4336 3147 c3 -10 9 -15 12 -12 3 3 0 11 -7 18 -10 9 -11 8 -5 -6z"/>
<path d="M2840 3133 c-13 -15 -12 -16 4 -10 10 4 20 7 22 7 2 0 4 5 4 10 0 15
-13 12 -30 -7z"/>
<path d="M2863 3113 c-7 -2 -13 -9 -13 -15 0 -7 5 -7 13 1 8 6 18 7 22 3 5 -4
5 -1 1 6 -4 6 -8 12 -9 11 -1 0 -8 -3 -14 -6z"/>
<path d="M4310 3091 c0 -5 7 -12 16 -15 14 -5 15 -4 4 9 -14 17 -20 19 -20 6z"/>
<path d="M4231 2544 c0 -11 3 -14 6 -6 3 7 2 16 -1 19 -3 4 -6 -2 -5 -13z"/>
<path d="M4210 2523 c0 -12 28 -38 34 -32 2 2 -5 13 -15 23 -11 11 -19 15 -19
9z"/>
<path d="M2456 2302 c-3 -5 1 -9 9 -9 8 0 12 4 9 9 -3 4 -7 8 -9 8 -2 0 -6 -4
-9 -8z"/>
<path d="M4186 2253 c-4 -11 -1 -11 14 -3 24 13 25 17 5 17 -8 0 -16 -6 -19
-14z"/>
<path d="M2390 2181 c0 -6 4 -12 8 -15 5 -3 9 1 9 9 0 8 -4 15 -9 15 -4 0 -8
-4 -8 -9z"/>
<path d="M2331 2151 c-8 -14 -7 -20 3 -24 10 -4 12 0 8 15 -4 16 -2 19 8 13 9
-5 11 -4 6 3 -10 16 -14 15 -25 -7z"/>
<path d="M2376 2147 c3 -10 9 -15 12 -12 3 3 0 11 -7 18 -10 9 -11 8 -5 -6z"/>
<path d="M230 2140 c0 -5 5 -10 11 -10 5 0 7 5 4 10 -3 6 -8 10 -11 10 -2 0
-4 -4 -4 -10z"/>
<path d="M4310 2117 c0 -2 6 -10 14 -16 11 -9 16 -9 22 1 4 7 4 10 -1 6 -4 -4
-14 -3 -22 3 -7 6 -13 9 -13 6z"/>
<path d="M290 2085 c0 -5 5 -17 10 -25 5 -8 10 -10 10 -5 0 6 -5 17 -10 25 -5
8 -10 11 -10 5z"/>
<path d="M4306 2044 c-21 -21 -20 -27 7 -50 22 -19 22 -19 5 2 -23 26 -23 33
1 27 10 -3 22 0 25 5 4 6 -3 8 -16 5 -22 -4 -23 -4 -4 11 11 9 15 16 9 16 -7
0 -19 -7 -27 -16z"/>
<path d="M330 1999 c0 -5 5 -7 10 -4 6 3 10 8 10 11 0 2 -4 4 -10 4 -5 0 -10
-5 -10 -11z"/>
<path d="M416 1973 c-6 -14 -5 -15 5 -6 7 7 10 15 7 18 -3 3 -9 -2 -12 -12z"/>
<path d="M400 1940 c-9 -6 -10 -10 -3 -10 6 0 15 5 18 10 8 12 4 12 -15 0z"/>
<path d="M4254 1939 c-3 -6 -1 -16 6 -22 10 -9 11 -9 5 2 -4 8 -2 17 6 22 9 6
10 9 2 9 -6 0 -15 -5 -19 -11z"/>
<path d="M574 1859 c-3 -6 -1 -16 5 -22 9 -9 11 -8 5 6 -5 13 -2 16 10 11 9
-3 16 -4 16 -1 0 11 -30 16 -36 6z"/>
<path d="M3876 1853 c6 -5 16 -17 23 -28 11 -19 12 -19 5 4 -5 18 -3 22 7 16
8 -5 11 -4 6 0 -4 5 -18 10 -30 12 -12 2 -17 0 -11 -4z"/>
<path d="M627 1833 c5 -12 3 -14 -7 -8 -9 5 -11 4 -6 -4 6 -9 11 -9 22 0 17
14 17 16 0 22 -11 4 -13 1 -9 -10z"/>
<path d="M2233 1843 c4 -3 1 -13 -6 -22 -11 -14 -10 -14 5 -2 16 12 16 31 1
31 -4 0 -3 -3 0 -7z"/>
<path d="M4255 1831 c-3 -5 -2 -12 3 -15 5 -3 9 1 9 9 0 17 -3 19 -12 6z"/>
<path d="M635 1801 c-3 -5 -2 -12 3 -15 5 -3 9 1 9 9 0 17 -3 19 -12 6z"/>
<path d="M668 1795 c4 -5 7 -13 7 -17 0 -3 3 -9 7 -13 3 -4 5 1 4 12 -2 10 2
21 8 25 6 4 1 6 -11 5 -12 0 -19 -6 -15 -12z"/>
<path d="M4150 1801 c0 -6 4 -12 8 -15 5 -3 9 1 9 9 0 8 -4 15 -9 15 -4 0 -8
-4 -8 -9z"/>
<path d="M4216 1801 c-4 -5 3 -7 14 -4 23 6 26 13 6 13 -8 0 -17 -4 -20 -9z"/>
<path d="M748 1763 c7 -3 16 -2 19 1 4 3 -2 6 -13 5 -11 0 -14 -3 -6 -6z"/>
<path d="M775 1749 c-4 -6 -5 -12 -2 -15 2 -3 7 2 10 11 7 17 1 20 -8 4z"/>
<path d="M824 1731 c0 -11 4 -17 8 -15 10 7 10 34 0 34 -4 0 -8 -9 -8 -19z"/>
<path d="M793 1725 c0 -8 4 -12 9 -9 5 3 6 10 3 15 -9 13 -12 11 -12 -6z"/>
<path d="M877 1733 c-10 -9 -9 -23 1 -23 5 0 9 7 9 15 0 17 -1 18 -10 8z"/>
<path d="M896 1693 c-4 -9 -2 -11 7 -6 6 4 18 8 25 9 25 4 23 12 -2 12 -14 0
-27 -7 -30 -15z"/>
<path d="M2024 1698 c10 -6 22 -6 26 -2 5 5 -3 10 -18 11 -22 1 -24 0 -8 -9z"/>
<path d="M1975 1691 c-3 -5 0 -13 6 -17 7 -4 9 -3 5 4 -3 5 0 13 6 15 9 4 10
6 1 6 -6 1 -14 -3 -18 -8z"/>
<path d="M950 1675 c5 -7 6 -16 2 -21 -4 -5 -3 -5 2 -1 15 12 15 34 0 34 -9 0
-11 -4 -4 -12z"/>
<path d="M2017 1673 c4 -11 3 -14 -5 -9 -8 5 -10 1 -5 -10 4 -12 8 -14 11 -6
3 10 7 10 20 0 12 -10 12 -7 -2 15 -21 31 -28 35 -19 10z"/>
<path d="M2055 1681 c-6 -11 13 -26 22 -17 4 3 1 6 -6 6 -7 0 -9 5 -6 10 3 6
4 10 1 10 -3 0 -7 -4 -11 -9z"/>
<path d="M981 1664 c0 -11 3 -14 6 -6 3 7 2 16 -1 19 -3 4 -6 -2 -5 -13z"/>
<path d="M1045 1660 c3 -5 8 -10 11 -10 2 0 4 5 4 10 0 6 -5 10 -11 10 -5 0
-7 -4 -4 -10z"/>
<path d="M1115 1660 c3 -5 8 -10 11 -10 2 0 4 5 4 10 0 6 -5 10 -11 10 -5 0
-7 -4 -4 -10z"/>
<path d="M1870 1660 c0 -5 5 -10 11 -10 5 0 7 5 4 10 -3 6 -8 10 -11 10 -2 0
-4 -4 -4 -10z"/>
<path d="M1953 1663 c4 -3 1 -13 -6 -22 -10 -14 -10 -14 5 -3 10 8 23 10 30 6
10 -6 9 -3 -1 9 -7 9 -18 17 -24 17 -6 0 -7 -3 -4 -7z"/>
<path d="M1060 1640 c-9 -6 -10 -10 -3 -10 6 0 15 5 18 10 8 12 4 12 -15 0z"/>
<path d="M1854 1642 c3 -5 0 -13 -6 -15 -9 -4 -10 -6 -1 -6 17 -1 25 16 12 25
-7 4 -9 3 -5 -4z"/>
<path d="M1896 1641 c-3 -5 2 -15 12 -22 15 -12 16 -12 5 2 -7 9 -10 19 -6 22
3 4 4 7 0 7 -3 0 -8 -4 -11 -9z"/>
<path d="M2066 1641 c-4 -5 3 -7 14 -4 23 6 26 13 6 13 -8 0 -17 -4 -20 -9z"/>
<path d="M1193 1627 c0 -7 9 -14 19 -14 10 -1 18 3 18 9 0 6 -3 8 -7 5 -3 -4
-11 -2 -18 3 -8 7 -12 6 -12 -3z"/>
<path d="M1260 1633 c0 -6 5 -15 10 -18 6 -4 8 -10 5 -15 -3 -5 -1 -11 4 -14
12 -8 8 14 -7 39 -6 11 -12 15 -12 8z"/>
<path d="M1300 1619 c0 -3 11 -6 25 -6 14 0 25 3 25 6 0 4 -11 7 -25 7 -14 0
-25 -3 -25 -7z"/>
<path d="M1668 1623 c7 -3 16 -2 19 1 4 3 -2 6 -13 5 -11 0 -14 -3 -6 -6z"/>
<path d="M1720 1616 c0 -8 4 -17 9 -20 5 -4 7 3 4 14 -6 23 -13 26 -13 6z"/>
<path d="M1759 1628 c-7 -23 -4 -35 7 -35 11 0 11 3 1 16 -10 12 -9 14 6 8 11
-4 16 -3 12 3 -5 9 -24 14 -26 8z"/>
<path d="M1170 1611 c0 -6 4 -13 10 -16 6 -3 7 1 4 9 -7 18 -14 21 -14 7z"/>
<path d="M1430 1610 c8 -5 20 -10 25 -10 6 0 3 5 -5 10 -8 5 -19 10 -25 10 -5
0 -3 -5 5 -10z"/>
<path d="M1065 1600 c-3 -6 1 -7 9 -4 18 7 21 14 7 14 -6 0 -13 -4 -16 -10z"/>
<path d="M1355 1601 c-3 -5 -2 -12 3 -15 5 -3 9 1 9 9 0 17 -3 19 -12 6z"/>
<path d="M1535 1601 c-9 -15 15 -25 28 -12 9 9 7 10 -7 5 -13 -5 -17 -4 -12 4
4 7 5 12 2 12 -3 0 -7 -4 -11 -9z"/>
<path d="M1215 1589 c-4 -6 -5 -12 -2 -15 2 -3 7 2 10 11 7 17 1 20 -8 4z"/>
<path d="M1593 1587 c0 -8 6 -14 14 -14 9 0 10 4 2 14 -6 7 -12 13 -14 13 -1
0 -2 -6 -2 -13z"/>
<path d="M1450 1579 c0 -5 5 -7 10 -4 6 3 10 8 10 11 0 2 -4 4 -10 4 -5 0 -10
-5 -10 -11z"/>
<path d="M1506 1582 c-3 -5 1 -9 9 -9 8 0 12 4 9 9 -3 4 -7 8 -9 8 -2 0 -6 -4
-9 -8z"/>
<path d="M1655 1580 c3 -5 8 -10 11 -10 2 0 4 5 4 10 0 6 -5 10 -11 10 -5 0
-7 -4 -4 -10z"/>
<path d="M1690 1579 c0 -5 5 -7 10 -4 6 3 10 8 10 11 0 2 -4 4 -10 4 -5 0 -10
-5 -10 -11z"/>
<path d="M1295 1560 c3 -5 8 -10 11 -10 2 0 4 5 4 10 0 6 -5 10 -11 10 -5 0
-7 -4 -4 -10z"/>
<path d="M1335 1560 c3 -5 8 -10 11 -10 2 0 4 5 4 10 0 6 -5 10 -11 10 -5 0
-7 -4 -4 -10z"/>
<path d="M2100 1366 c0 -2 8 -10 18 -17 15 -13 16 -12 3 4 -13 16 -21 21 -21
13z"/>
<path d="M2031 1351 c-8 -5 -9 -11 -3 -15 5 -3 12 1 16 9 6 17 6 18 -13 6z"/>
<path d="M1974 1335 c1 -8 6 -18 11 -22 4 -4 5 -3 2 4 -4 6 -2 13 5 15 8 3 6
6 -4 10 -10 4 -15 2 -14 -7z"/>
<path d="M3233 1325 c0 -8 4 -12 9 -9 5 3 6 10 3 15 -9 13 -12 11 -12 -6z"/>
<path d="M2090 1319 c0 -5 5 -7 10 -4 6 3 10 8 10 11 0 2 -4 4 -10 4 -5 0 -10
-5 -10 -11z"/>
<path d="M1906 1304 c-5 -14 -4 -15 9 -4 17 14 19 20 6 20 -5 0 -12 -7 -15
-16z"/>
<path d="M2053 1305 c0 -8 3 -13 5 -10 3 3 12 -1 21 -7 10 -8 9 -4 -3 10 -23
26 -23 26 -23 7z"/>
<path d="M1935 1301 c-3 -5 -2 -12 3 -15 5 -3 9 1 9 9 0 17 -3 19 -12 6z"/>
<path d="M1967 1299 c7 -7 15 -10 18 -7 3 3 -2 9 -12 12 -14 6 -15 5 -6 -5z"/>
<path d="M1876 1282 c-2 -4 -1 -14 4 -22 7 -11 9 -9 7 8 -1 24 -3 26 -11 14z"/>
<path d="M1910 1240 c0 -5 5 -10 11 -10 5 0 7 5 4 10 -3 6 -8 10 -11 10 -2 0
-4 -4 -4 -10z"/>
<path d="M2376 1178 c3 -5 10 -6 15 -3 13 9 11 12 -6 12 -8 0 -12 -4 -9 -9z"/>
<path d="M2426 1182 c-2 -4 4 -8 14 -8 10 0 16 4 14 8 -3 4 -9 8 -14 8 -5 0
-11 -4 -14 -8z"/>
<path d="M2506 1182 c-2 -4 9 -7 25 -7 31 -1 30 7 -1 12 -10 1 -21 -1 -24 -5z"/>
<path d="M2586 1182 c-2 -4 4 -8 14 -8 10 0 16 4 14 8 -3 4 -9 8 -14 8 -5 0
-11 -4 -14 -8z"/>
<path d="M2666 1182 c-2 -4 9 -7 25 -7 31 -1 30 7 -1 12 -10 1 -21 -1 -24 -5z"/>
<path d="M2746 1182 c-2 -4 4 -8 14 -8 10 0 16 4 14 8 -3 4 -9 8 -14 8 -5 0
-11 -4 -14 -8z"/>
<path d="M2826 1182 c-2 -4 9 -7 25 -7 31 -1 30 7 -1 12 -10 1 -21 -1 -24 -5z"/>
<path d="M2906 1182 c-2 -4 4 -8 14 -8 10 0 16 4 14 8 -3 4 -9 8 -14 8 -5 0
-11 -4 -14 -8z"/>
<path d="M2986 1181 c-5 -8 50 -8 58 -1 2 3 -9 6 -25 6 -16 1 -31 -1 -33 -5z"/>
<path d="M3535 1180 c3 -5 8 -10 11 -10 2 0 4 5 4 10 0 6 -5 10 -11 10 -5 0
-7 -4 -4 -10z"/>
<path d="M3586 1181 c-3 -4 4 -7 14 -6 27 2 33 10 10 12 -11 1 -22 -2 -24 -6z"/>
<path d="M3775 1180 c3 -5 8 -10 11 -10 2 0 4 5 4 10 0 6 -5 10 -11 10 -5 0
-7 -4 -4 -10z"/>
<path d="M3884 1182 c4 -3 14 -7 22 -8 9 -1 13 0 10 4 -4 3 -14 7 -22 8 -9 1
-13 0 -10 -4z"/>
<path d="M4015 1180 c3 -5 8 -10 11 -10 2 0 4 5 4 10 0 6 -5 10 -11 10 -5 0
-7 -4 -4 -10z"/>
<path d="M1850 901 c0 -6 4 -13 10 -16 6 -3 7 1 4 9 -7 18 -14 21 -14 7z"/>
<path d="M1895 840 c3 -5 8 -10 11 -10 2 0 4 5 4 10 0 6 -5 10 -11 10 -5 0 -7
-4 -4 -10z"/>
<path d="M2005 819 c-4 -6 -5 -12 -2 -15 2 -3 7 2 10 11 7 17 1 20 -8 4z"/>
<path d="M2026 803 c-6 -14 -5 -15 5 -6 7 7 10 15 7 18 -3 3 -9 -2 -12 -12z"/>
<path d="M2071 787 c2 -1 12 -9 22 -16 15 -12 17 -12 11 3 -3 9 -13 16 -22 16
-8 0 -13 -1 -11 -3z"/>
<path d="M2160 786 c0 -2 8 -10 18 -17 15 -13 16 -12 3 4 -13 16 -21 21 -21
13z"/>
<path d="M2144 742 c23 -26 23 -26 23 -7 0 8 -3 13 -5 10 -3 -3 -12 1 -21 7
-10 8 -9 4 3 -10z"/>
</g>
</svg>
